<svg width="12" height="11" viewBox="0 0 12 11" fill="none" xmlns="http://www.w3.org/2000/svg">
<path opacity="0.5" d="M0.972656 1.52148C0.820312 1.38085 0.744141 1.21093 0.744141 1.01171C0.744141 0.800776 0.820312 0.619135 0.972656 0.466791C1.11328 0.326166 1.28906 0.255854 1.5 0.255854C1.71094 0.255854 1.88672 0.326166 2.02734 0.466791L6 4.43945L9.97266 0.466791C10.1133 0.326166 10.2891 0.255854 10.5 0.255854C10.7109 0.255854 10.8867 0.326166 11.0273 0.466791C11.1797 0.619135 11.2559 0.800776 11.2559 1.01171C11.2559 1.21093 11.1797 1.38085 11.0273 1.52148L7.05469 5.49413L11.0273 9.46679C11.1797 9.61913 11.2559 9.80078 11.2559 10.0117C11.2559 10.2109 11.1797 10.3809 11.0273 10.5215C10.8867 10.6738 10.7109 10.75 10.5 10.75C10.2891 10.75 10.1133 10.6738 9.97266 10.5215L6 6.5664L2.02734 10.5215C1.88672 10.6738 1.71094 10.75 1.5 10.75C1.28906 10.75 1.11328 10.6738 0.972656 10.5215C0.820312 10.3809 0.744141 10.2109 0.744141 10.0117C0.744141 9.80078 0.820312 9.61913 0.972656 9.46679L4.94531 5.49413L0.972656 1.52148Z" fill="white"/>
</svg>
