<svg width="12" height="9" viewBox="0 0 12 9" fill="none" xmlns="http://www.w3.org/2000/svg">
<path d="M7.2832 8.7832C7.13086 8.92383 6.94922 8.99414 6.73828 8.99414C6.53906 8.99414 6.36914 8.92383 6.22852 8.7832C6.07617 8.63086 6 8.45508 6 8.25586C6 8.04492 6.07617 7.86914 6.22852 7.72852L9.44531 4.49414L6.22852 1.27734C6.07617 1.13672 6 0.960938 6 0.75C6 0.539062 6.07617 0.363281 6.22852 0.222656C6.36914 0.0703125 6.53906 -0.00585938 6.73828 -0.00585938C6.94922 -0.00585938 7.13086 0.0703125 7.2832 0.222656L11.0273 3.9668C11.1797 4.11914 11.2559 4.30078 11.2559 4.51172C11.2559 4.71094 11.1797 4.88086 11.0273 5.02148L7.2832 8.7832ZM2.02734 8.7832C1.88672 8.92383 1.71094 8.99414 1.5 8.99414C1.28906 8.99414 1.11328 8.92383 0.972656 8.7832C0.820312 8.63086 0.744141 8.45508 0.744141 8.25586C0.744141 8.04492 0.820312 7.86914 0.972656 7.72852L4.18945 4.49414L0.972656 1.27734C0.820312 1.13672 0.744141 0.960938 0.744141 0.75C0.744141 0.539062 0.820312 0.363281 0.972656 0.222656C1.11328 0.0703125 1.28906 -0.00585938 1.5 -0.00585938C1.71094 -0.00585938 1.88672 0.0703125 2.02734 0.222656L5.77148 3.9668C5.92383 4.11914 6 4.30078 6 4.51172C6 4.71094 5.92383 4.88086 5.77148 5.02148L2.02734 8.7832Z" fill="#999999"/>
</svg>
