<svg width="18" height="12" viewBox="0 0 18 12" fill="none" xmlns="http://www.w3.org/2000/svg">
<path d="M1.5 7C1.26562 7 1.0638 6.92188 0.894531 6.76562C0.738281 6.59635 0.660156 6.39453 0.660156 6.16016C0.660156 5.9388 0.738281 5.75 0.894531 5.59375C1.0638 5.42448 1.26562 5.33984 1.5 5.33984H16.5C16.7344 5.33984 16.9297 5.42448 17.0859 5.59375C17.2552 5.75 17.3398 5.9388 17.3398 6.16016C17.3398 6.39453 17.2552 6.59635 17.0859 6.76562C16.9297 6.92188 16.7344 7 16.5 7H1.5ZM1.5 2C1.26562 2 1.0638 1.92188 0.894531 1.76562C0.738281 1.59635 0.660156 1.39453 0.660156 1.16016C0.660156 0.938802 0.738281 0.75 0.894531 0.59375C1.0638 0.424479 1.26562 0.339844 1.5 0.339844H16.5C16.7344 0.339844 16.9297 0.424479 17.0859 0.59375C17.2552 0.75 17.3398 0.938802 17.3398 1.16016C17.3398 1.39453 17.2552 1.59635 17.0859 1.76562C16.9297 1.92188 16.7344 2 16.5 2H1.5ZM1.5 12C1.26562 12 1.0638 11.9219 0.894531 11.7656C0.738281 11.5964 0.660156 11.3945 0.660156 11.1602C0.660156 10.9388 0.738281 10.75 0.894531 10.5938C1.0638 10.4245 1.26562 10.3398 1.5 10.3398H16.5C16.7344 10.3398 16.9297 10.4245 17.0859 10.5938C17.2552 10.75 17.3398 10.9388 17.3398 11.1602C17.3398 11.3945 17.2552 11.5964 17.0859 11.7656C16.9297 11.9219 16.7344 12 16.5 12H1.5Z" fill="#111111"/>
</svg>
