<svg width="7" height="10" viewBox="0 0 7 10" fill="none" xmlns="http://www.w3.org/2000/svg">
<path opacity="0.5" d="M5.96875 8.85938C6.10417 8.99479 6.17188 9.15625 6.17188 9.34375C6.17188 9.52083 6.10417 9.67188 5.96875 9.79688C5.84375 9.93229 5.6875 10 5.5 10C5.3125 10 5.15625 9.93229 5.03125 9.79688L1.03125 5.79688C0.895833 5.67188 0.828125 5.52083 0.828125 5.34375C0.828125 5.15625 0.895833 4.99479 1.03125 4.85938L5.03125 0.859375C5.15625 0.734375 5.3125 0.671875 5.5 0.671875C5.6875 0.671875 5.84375 0.734375 5.96875 0.859375C6.10417 0.994792 6.17188 1.15625 6.17188 1.34375C6.17188 1.52083 6.10417 1.67188 5.96875 1.79688L2.4375 5.32812L5.96875 8.85938Z" fill="white"/>
</svg>
