<svg width="28" height="28" viewBox="0 0 28 28" fill="none" xmlns="http://www.w3.org/2000/svg">
<path d="M20.2488 15.55V10.9751L8.38635 4.125" stroke="#00A2C2" stroke-width="2" stroke-linecap="round" stroke-linejoin="round"/>
<path d="M2.96252 8.30005L14 14.6875L24.9625 8.33751" stroke="#111111" stroke-width="2" stroke-linecap="round" stroke-linejoin="round"/>
<path d="M14 26.0126V14.675" stroke="#111111" stroke-width="2" stroke-linecap="round" stroke-linejoin="round"/>
<path d="M11.4125 2.1L4.7375 5.81254C3.225 6.65004 1.98752 8.75001 1.98752 10.475V17.5375C1.98752 19.2625 3.225 21.3625 4.7375 22.2L11.4125 25.9126C12.8375 26.7001 15.175 26.7001 16.6 25.9126L23.275 22.2C24.7875 21.3625 26.025 19.2625 26.025 17.5375V10.475C26.025 8.75001 24.7875 6.65004 23.275 5.81254L16.6 2.1C15.1625 1.3 12.8375 1.3 11.4125 2.1Z" stroke="#111111" stroke-width="2" stroke-linecap="round" stroke-linejoin="round"/>
</svg>
