<svg width="12" height="12" viewBox="0 0 12 12" fill="none" xmlns="http://www.w3.org/2000/svg">
<path d="M11.9564 4.53771C11.9954 4.66002 11.9993 4.78641 11.9681 4.91687C11.9368 5.04734 11.8704 5.15742 11.7689 5.24711L9.1556 7.64439L9.92904 11.1914C9.95247 11.3219 9.94075 11.4482 9.89388 11.5706C9.85482 11.6929 9.7845 11.7948 9.68294 11.8763C9.57357 11.9579 9.45638 11.9986 9.33138 11.9986C9.20638 12.0068 9.08919 11.9783 8.97982 11.913L5.99154 10.0417L3.00326 11.913C2.95638 11.9375 2.90169 11.9579 2.83919 11.9742C2.78451 11.9905 2.72982 11.9986 2.67513 11.9986C2.61263 11.9986 2.54622 11.9864 2.47591 11.9619C2.41341 11.9456 2.35482 11.9171 2.30013 11.8763C2.19857 11.7948 2.12435 11.6929 2.07747 11.5706C2.03841 11.4482 2.0306 11.3219 2.05404 11.1914L2.82747 7.64439L0.214193 5.24711C0.11263 5.15742 0.046224 5.04734 0.014974 4.91687C-0.016276 4.78641 -0.0123698 4.66002 0.0266927 4.53771C0.0657552 4.40725 0.132161 4.30125 0.225911 4.21971C0.327474 4.13817 0.440755 4.08924 0.565755 4.07293L4.03451 3.75493L5.4056 0.403624C5.45247 0.281314 5.5306 0.183465 5.63997 0.110079C5.74935 0.0366931 5.86654 0 5.99154 0C6.11654 0 6.23372 0.0366931 6.3431 0.110079C6.45247 0.183465 6.5306 0.281314 6.57747 0.403624L7.94857 3.75493L11.4173 4.07293C11.5423 4.08924 11.6517 4.13817 11.7454 4.21971C11.847 4.30125 11.9173 4.40725 11.9564 4.53771Z" fill="#FFB800"/>
</svg>
