<svg width="14" height="14" viewBox="0 0 14 14" fill="none" xmlns="http://www.w3.org/2000/svg">
<path d="M2.91211 7.75C2.75716 7.75 2.62044 7.69531 2.50195 7.58594C2.39258 7.46745 2.33789 7.32617 2.33789 7.16211C2.33789 7.00716 2.39258 6.875 2.50195 6.76562C2.62044 6.64714 2.75716 6.58789 2.91211 6.58789H6.41211V3.08789C6.41211 2.92383 6.4668 2.78711 6.57617 2.67773C6.69466 2.55924 6.83594 2.5 7 2.5C7.16406 2.5 7.30078 2.55924 7.41016 2.67773C7.52865 2.78711 7.58789 2.92383 7.58789 3.08789V6.58789H11.0879C11.2428 6.58789 11.375 6.64714 11.4844 6.76562C11.6029 6.875 11.6621 7.00716 11.6621 7.16211C11.6621 7.32617 11.6029 7.46745 11.4844 7.58594C11.375 7.69531 11.2428 7.75 11.0879 7.75H7.58789V11.25C7.58789 11.4141 7.52865 11.5553 7.41016 11.6738C7.30078 11.7832 7.16406 11.8379 7 11.8379C6.83594 11.8379 6.69466 11.7832 6.57617 11.6738C6.4668 11.5553 6.41211 11.4141 6.41211 11.25V7.75H2.91211Z" fill="#555555"/>
</svg>
