<svg width="20" height="20" viewBox="0 0 20 20" fill="none" xmlns="http://www.w3.org/2000/svg">
<path d="M8.33332 14.125H5.17499C2.36666 14.125 1.66666 13.425 1.66666 10.6167V5.61667C1.66666 2.80834 2.36666 2.10834 5.17499 2.10834H13.95C16.7583 2.10834 17.4583 2.80834 17.4583 5.61667" stroke="#111111" stroke-width="1.3" stroke-linecap="round" stroke-linejoin="round"/>
<path d="M8.33334 17.8917V14.125" stroke="#111111" stroke-width="1.3" stroke-linecap="round" stroke-linejoin="round"/>
<path d="M1.66666 10.7917H8.33332" stroke="#111111" stroke-width="1.3" stroke-linecap="round" stroke-linejoin="round"/>
<path d="M5.61667 17.8917H8.33334" stroke="#111111" stroke-width="1.3" stroke-linecap="round" stroke-linejoin="round"/>
<path d="M18.3333 10.6667V15.425C18.3333 17.4 17.8417 17.8917 15.8667 17.8917H12.9083C10.9333 17.8917 10.4417 17.4 10.4417 15.425V10.6667C10.4417 8.69166 10.9333 8.2 12.9083 8.2H15.8667C17.8417 8.2 18.3333 8.69166 18.3333 10.6667Z" stroke="#111111" stroke-width="1.3" stroke-linecap="round" stroke-linejoin="round"/>
<path d="M14.3704 15.2083H14.3779" stroke="#111111" stroke-width="1.8" stroke-linecap="round" stroke-linejoin="round"/>
</svg>
