<svg width="20" height="20" viewBox="0 0 20 20" fill="none" xmlns="http://www.w3.org/2000/svg">
<path d="M19 13.1585C18.9989 12.6465 18.8838 12.1405 18.6621 11.6734C18.4404 11.2063 18.1171 10.7885 17.7133 10.4471V8.29509C17.7133 6.36031 16.8999 4.50478 15.452 3.13668C14.0042 1.76859 12.0405 1 9.99289 1C7.94531 1 5.9816 1.76859 4.53375 3.13668C3.0859 4.50478 2.2725 6.36031 2.2725 8.29509V10.4471C1.72876 10.9113 1.33605 11.5121 1.1403 12.1794C0.944538 12.8466 0.953811 13.5527 1.16703 14.2151C1.38025 14.8776 1.78861 15.469 2.34438 15.9203C2.90015 16.3715 3.58037 16.664 4.30554 16.7635C4.45215 17.1708 4.74642 17.516 5.13634 17.7381C5.52627 17.9602 5.98674 18.045 6.43637 17.9773C6.886 17.9096 7.29585 17.694 7.59347 17.3684C7.89109 17.0428 8.05733 16.6283 8.06279 16.1981V10.1189C8.05733 9.68868 7.89109 9.27417 7.59347 8.94859C7.29585 8.62301 6.886 8.40734 6.43637 8.33968C5.98674 8.27202 5.52627 8.35674 5.13634 8.57886C4.74642 8.80097 4.45215 9.14619 4.30554 9.5535C4.05107 9.585 3.80089 9.64207 3.55923 9.72372V8.29509C3.55923 6.68278 4.23706 5.1365 5.44361 3.99642C6.65015 2.85634 8.28658 2.21585 9.99289 2.21585C11.6992 2.21585 13.3356 2.85634 14.5422 3.99642C15.7487 5.1365 16.4265 6.68278 16.4265 8.29509V9.72372C16.1849 9.64207 15.9347 9.585 15.6802 9.5535C15.5336 9.14619 15.2394 8.80097 14.8494 8.57886C14.4595 8.35674 13.999 8.27202 13.5494 8.33968C13.0998 8.40734 12.6899 8.62301 12.3923 8.94859C12.0947 9.27417 11.9284 9.68868 11.923 10.1189V16.1981C11.9284 16.6283 12.0947 17.0428 12.3923 17.3684C12.6899 17.694 13.0998 17.9096 13.5494 17.9773C13.999 18.045 14.4595 17.9602 14.8494 17.7381C15.2394 17.516 15.5336 17.1708 15.6802 16.7635C16.6 16.6406 17.4421 16.2084 18.0519 15.5462C18.6617 14.884 18.9983 14.0363 19 13.1585ZM6.1327 9.51094C6.30333 9.51094 6.46697 9.57499 6.58762 9.689C6.70828 9.80301 6.77606 9.95764 6.77606 10.1189V16.1981C6.77606 16.3593 6.70828 16.514 6.58762 16.628C6.46697 16.742 6.30333 16.806 6.1327 16.806C5.96206 16.806 5.79842 16.742 5.67777 16.628C5.55711 16.514 5.48933 16.3593 5.48933 16.1981V10.1189C5.48933 9.95764 5.55711 9.80301 5.67777 9.689C5.79842 9.57499 5.96206 9.51094 6.1327 9.51094ZM4.2026 15.5112C3.65188 15.3751 3.16442 15.0704 2.81652 14.6447C2.46861 14.219 2.27989 13.6964 2.27989 13.1585C2.27989 12.6206 2.46861 12.0979 2.81652 11.6722C3.16442 11.2465 3.65188 10.9418 4.2026 10.8058V15.5112ZM13.8531 16.806C13.6824 16.806 13.5188 16.742 13.3981 16.628C13.2775 16.514 13.2097 16.3593 13.2097 16.1981V10.1189C13.2097 9.95764 13.2775 9.80301 13.3981 9.689C13.5188 9.57499 13.6824 9.51094 13.8531 9.51094C14.0237 9.51094 14.1874 9.57499 14.308 9.689C14.4287 9.80301 14.4964 9.95764 14.4964 10.1189V16.1981C14.4964 16.3593 14.4287 16.514 14.308 16.628C14.1874 16.742 14.0237 16.806 13.8531 16.806ZM15.7832 15.5112V10.8058C16.3339 10.9418 16.8213 11.2465 17.1693 11.6722C17.5172 12.0979 17.7059 12.6206 17.7059 13.1585C17.7059 13.6964 17.5172 14.219 17.1693 14.6447C16.8213 15.0704 16.3339 15.3751 15.7832 15.5112Z" fill="black"/>
</svg>
