<svg width="18" height="19" viewBox="0 0 18 19" fill="none" xmlns="http://www.w3.org/2000/svg">
<path d="M18 9.49042C18 8.877 17.9424 8.27636 17.8273 7.6885C17.6994 7.10064 17.5203 6.53834 17.29 6.0016C17.0725 5.46486 16.7974 4.95367 16.4648 4.46805C16.145 3.98243 15.7804 3.53514 15.371 3.1262C14.9616 2.73003 14.5139 2.36581 14.0277 2.03355C13.5544 1.71406 13.049 1.4393 12.5117 1.20927C11.9744 0.979233 11.4115 0.806709 10.823 0.691693C10.2345 0.563898 9.62687 0.5 9 0.5C8.37313 0.5 7.76546 0.563898 7.17697 0.691693C6.58849 0.806709 6.02559 0.979233 5.48827 1.20927C4.95096 1.4393 4.44563 1.71406 3.97228 2.03355C3.48614 2.36581 3.03838 2.73003 2.629 3.1262C2.21962 3.53514 1.85501 3.98243 1.53518 4.46805C1.20256 4.95367 0.921109 5.46486 0.690832 6.0016C0.473348 6.53834 0.30064 7.10064 0.172708 7.6885C0.0575693 8.27636 0 8.877 0 9.49042C0 10.1166 0.0575693 10.7236 0.172708 11.3115C0.30064 11.8994 0.473348 12.4617 0.690832 12.9984C0.921109 13.5351 1.20256 14.0463 1.53518 14.5319C1.85501 15.0048 2.21962 15.4457 2.629 15.8546C3.03838 16.2636 3.48614 16.6278 3.97228 16.9473C4.44563 17.2796 4.95096 17.5607 5.48827 17.7907C6.02559 18.0208 6.58849 18.1933 7.17697 18.3083C7.76546 18.4361 8.37313 18.5 9 18.5C9.62687 18.5 10.2345 18.4361 10.823 18.3083C11.4115 18.1933 11.9744 18.0208 12.5117 17.7907C13.049 17.5607 13.5544 17.2796 14.0277 16.9473C14.5139 16.6278 14.9616 16.2636 15.371 15.8546C15.7804 15.4457 16.145 15.0048 16.4648 14.5319C16.7974 14.0463 17.0725 13.5351 17.29 12.9984C17.5203 12.4617 17.6994 11.8994 17.8273 11.3115C17.9424 10.7236 18 10.1166 18 9.49042ZM16.3689 9.49042C16.3689 10.5128 16.177 11.4712 15.7932 12.3658C15.4094 13.2604 14.8849 14.0399 14.2196 14.7045C13.5416 15.369 12.7548 15.893 11.8593 16.2764C10.9765 16.6597 10.0235 16.8514 9 16.8514C7.97655 16.8514 7.01706 16.6597 6.12154 16.2764C5.23881 15.893 4.45842 15.369 3.78038 14.7045C3.11514 14.0399 2.59062 13.2604 2.20682 12.3658C1.82303 11.4712 1.63113 10.5128 1.63113 9.49042C1.63113 8.48083 1.82303 7.52875 2.20682 6.63419C2.59062 5.73962 3.11514 4.96006 3.78038 4.29553C4.45842 3.63099 5.23881 3.10703 6.12154 2.72364C7.01706 2.32748 7.97655 2.12939 9 2.12939C10.0235 2.12939 10.9765 2.32748 11.8593 2.72364C12.7548 3.10703 13.5416 3.63099 14.2196 4.29553C14.8849 4.96006 15.4094 5.73962 15.7932 6.63419C16.177 7.52875 16.3689 8.48083 16.3689 9.49042ZM8.17484 4.58307V9.49042C8.17484 9.65655 8.21322 9.80351 8.28998 9.93131C8.37953 10.0591 8.49467 10.155 8.63539 10.2189L11.9168 11.8674C12.1087 11.9696 12.3134 11.9888 12.5309 11.9249C12.7484 11.8482 12.9083 11.7077 13.0107 11.5032C13.113 11.2987 13.1258 11.0879 13.049 10.8706C12.9851 10.6534 12.8507 10.4936 12.6461 10.3914L9.82516 8.99201V4.58307C9.82516 4.36581 9.742 4.18051 9.57569 4.02716C9.42217 3.86102 9.23028 3.77796 9 3.77796C8.76972 3.77796 8.57143 3.86102 8.40512 4.02716C8.2516 4.18051 8.17484 4.36581 8.17484 4.58307Z" fill="#111111"/>
</svg>
