<svg width="20" height="20" viewBox="0 0 20 20" fill="none" xmlns="http://www.w3.org/2000/svg">
<path d="M6.25001 3.33334H13.75C14.2667 3.33334 14.725 3.35001 15.1333 3.40834C17.325 3.65001 17.9167 4.68334 17.9167 7.50001V12.5C17.9167 15.3167 17.325 16.35 15.1333 16.5917C14.725 16.65 14.2667 16.6667 13.75 16.6667H6.25001C5.73334 16.6667 5.27501 16.65 4.86668 16.5917C2.67501 16.35 2.08334 15.3167 2.08334 12.5V7.50001C2.08334 4.68334 2.67501 3.65001 4.86668 3.40834C5.27501 3.35001 5.73334 3.33334 6.25001 3.33334Z" stroke="#111111" stroke-width="1.3" stroke-linecap="round" stroke-linejoin="round"/>
<path d="M11.25 8.33334H14.1667" stroke="#111111" stroke-width="1.3" stroke-linecap="round" stroke-linejoin="round"/>
<path d="M5.83334 12.9167H5.85001H14.1667" stroke="#111111" stroke-width="1.3" stroke-linecap="round" stroke-linejoin="round"/>
<path d="M8.41218 8.33332H8.41967" stroke="#111111" stroke-width="1.8" stroke-linecap="round" stroke-linejoin="round"/>
<path d="M5.91218 8.33332H5.91967" stroke="#111111" stroke-width="1.8" stroke-linecap="round" stroke-linejoin="round"/>
</svg>
