<svg width="6" height="9" viewBox="0 0 6 9" fill="none" xmlns="http://www.w3.org/2000/svg">
<path d="M1.66016 8.07227C1.55078 8.19076 1.41406 8.25 1.25 8.25C1.08594 8.25 0.949219 8.19076 0.839844 8.07227C0.721354 7.96289 0.662109 7.83073 0.662109 7.67578C0.662109 7.51172 0.721354 7.37044 0.839844 7.25195L3.92969 4.16211L0.839844 1.07227C0.721354 0.962891 0.662109 0.830729 0.662109 0.675781C0.662109 0.511719 0.721354 0.370443 0.839844 0.251953C0.949219 0.142578 1.08594 0.0878906 1.25 0.0878906C1.41406 0.0878906 1.55078 0.142578 1.66016 0.251953L5.16016 3.75195C5.27865 3.87044 5.33789 4.01172 5.33789 4.17578C5.33789 4.33073 5.27865 4.46289 5.16016 4.57227L1.66016 8.07227Z" fill="#555555"/>
</svg>
