<svg width="144" height="38" viewBox="0 0 144 38" fill="none" xmlns="http://www.w3.org/2000/svg">
<path d="M111.798 10.5709C111.368 10.1822 110.818 9.95281 110.241 9.92065H100.852L101.498 10.5709L110.204 19.3271C110.375 19.4976 110.606 19.5934 110.846 19.5934C111.087 19.5934 111.318 19.4976 111.488 19.3271L115.359 15.4436C115.528 15.272 115.623 15.0398 115.623 14.7979C115.623 14.5559 115.528 14.3238 115.359 14.1522L111.798 10.5709Z" fill="#0D53BB"/>
<path d="M123.719 22.5602C123.55 22.3886 123.454 22.1565 123.454 21.9145C123.454 21.6725 123.55 21.4404 123.719 21.2688L125.012 19.9682L126.296 18.6768L143.363 1.5126C143.718 1.1554 144.009 0.862305 144 0.862305H134.62C134.042 0.894469 133.493 1.12387 133.063 1.5126L118.574 16.0847L117.281 17.3487L115.778 18.8508L114.494 20.188L113.392 21.2688L112.099 22.5602L110.687 23.9799L109.403 25.2805L97.6375 37.1324L97 37.7827H106.389C106.963 37.7539 107.51 37.5275 107.937 37.1415L117.281 27.7443C117.365 27.6584 117.466 27.5903 117.577 27.5438C117.688 27.4973 117.807 27.4734 117.927 27.4734C118.048 27.4734 118.167 27.4973 118.278 27.5438C118.389 27.5903 118.489 27.6584 118.574 27.7443L124.038 33.2398C124.465 33.6285 125.011 33.858 125.586 33.8901H134.074C134.575 33.8901 134.693 33.597 134.338 33.2398L126.014 24.8683L124.73 23.5769L123.719 22.5602Z" fill="#0D53BB"/>
<path d="M80.001 12.7407C79.9986 12.6419 80.0169 12.5436 80.0548 12.4522C80.0928 12.3607 80.1495 12.278 80.2215 12.2093C80.2904 12.1405 80.373 12.0864 80.464 12.0504C80.555 12.0144 80.6526 11.9974 80.7505 12.0002H85.4591C85.5571 11.9974 85.6546 12.0144 85.7456 12.0504C85.8367 12.0864 85.9192 12.1405 85.9882 12.2093C86.0601 12.278 86.1169 12.3607 86.1548 12.4522C86.1928 12.5436 86.2111 12.6419 86.2086 12.7407V25.2765C86.1849 25.9618 86.3175 26.6436 86.5966 27.2715C86.8245 27.7537 87.159 28.1794 87.5753 28.5172C87.9464 28.8033 88.368 29.0189 88.8186 29.1531C89.596 29.3969 90.4307 29.3969 91.2081 29.1531C91.6552 29.0232 92.0718 28.8071 92.4338 28.5172C92.842 28.176 93.17 27.7508 93.3949 27.2715C93.6814 26.6457 93.8173 25.9629 93.7917 25.2765V12.7407C93.7892 12.6419 93.8075 12.5436 93.8455 12.4522C93.8834 12.3607 93.9402 12.278 94.0121 12.2093C94.0811 12.1405 94.1636 12.0864 94.2546 12.0504C94.3456 12.0144 94.4432 11.9974 94.5412 12.0002H99.2497C99.4471 11.9984 99.6372 12.0735 99.7788 12.2093C99.8491 12.2792 99.9048 12.3621 99.9426 12.4533C99.9804 12.5445 99.9997 12.6422 99.9992 12.7407V25.2765C100.015 26.6409 99.7763 27.9966 99.2938 29.2751C98.8495 30.4277 98.161 31.4731 97.2746 32.3415C96.3678 33.204 95.29 33.8714 94.1091 34.3016C92.8011 34.7833 91.4135 35.0196 90.0178 34.9985C88.6191 35.0203 87.2285 34.7839 85.9176 34.3016C84.7367 33.8714 83.6589 33.204 82.7521 32.3415C81.8659 31.4713 81.1749 30.4265 80.7241 29.2751C80.2272 28 79.9818 26.6427 80.001 25.2765V12.7407Z" fill="#0D53BB"/>
<path d="M78 29.9726V34.2458C78 34.4553 77.9275 34.6333 77.7824 34.78C77.6374 34.9266 77.4613 34.9999 77.2541 34.9999H61.7459C61.518 34.9999 61.3315 34.9266 61.1865 34.78C61.0622 34.6333 61 34.4553 61 34.2458V12.754C61 12.5446 61.0622 12.3665 61.1865 12.2199C61.3315 12.0732 61.518 11.9999 61.7459 11.9999H66.4077C66.6149 11.9999 66.791 12.0732 66.936 12.2199C67.081 12.3665 67.1536 12.5446 67.1536 12.754V28.4644C67.1536 28.6739 67.2157 28.8519 67.34 28.9986C67.4851 29.1452 67.6715 29.2185 67.8995 29.2185H77.2541C77.4613 29.2185 77.6374 29.2918 77.7824 29.4384C77.9275 29.5851 78 29.7631 78 29.9726Z" fill="#0D53BB"/>
<path d="M57.9995 12.7404C58.0031 12.6422 57.9868 12.5444 57.9517 12.4529C57.9166 12.3615 57.8633 12.2785 57.7954 12.209C57.7274 12.1395 57.6461 12.0852 57.5566 12.0493C57.4671 12.0134 57.3713 11.9968 57.2752 12.0004H52.7166C52.6212 11.998 52.5263 12.0155 52.4379 12.0519C52.3494 12.0884 52.2691 12.1429 52.2021 12.2123C52.135 12.2816 52.0826 12.3642 52.0479 12.455C52.0133 12.5459 51.9973 12.643 52.0008 12.7404V23.7352V34.2338C51.9962 34.3328 52.0113 34.4316 52.0452 34.5244C52.0791 34.6172 52.1311 34.7019 52.198 34.7736C52.2649 34.8452 52.3454 34.9022 52.4345 34.9411C52.5237 34.98 52.6196 35 52.7166 34.9999H57.2667C57.3631 35.0003 57.4586 34.9813 57.5478 34.944C57.637 34.9067 57.7181 34.8517 57.7865 34.7823C57.8533 34.712 57.9058 34.6289 57.9409 34.5377C57.976 34.4466 57.993 34.3492 57.991 34.2513V23.7352L57.9995 12.7404Z" fill="#111111"/>
<path d="M48.9963 12.784V34.2158C48.9677 34.4138 48.8746 34.5973 48.7311 34.7387C48.5876 34.8801 48.4014 34.9717 48.2005 34.9999H43.4257C43.2247 34.9717 43.0385 34.8801 42.895 34.7387C42.7515 34.5973 42.6585 34.4138 42.6298 34.2158V24.1098C42.6298 23.9355 42.5414 23.7613 42.3646 23.7613C42.2734 23.7596 42.1836 23.7833 42.1055 23.8295C42.0273 23.8757 41.9639 23.9426 41.9225 24.0227L36.5287 32.5605C36.4669 32.6417 36.3868 32.7075 36.2947 32.7529C36.2026 32.7983 36.1011 32.8219 35.9981 32.8219C35.8952 32.8219 35.7936 32.7983 35.7016 32.7529C35.6095 32.7075 35.5294 32.6417 35.4676 32.5605L30.0738 24.0227C30.0324 23.9426 29.969 23.8757 29.8908 23.8295C29.8126 23.7833 29.7229 23.7596 29.6317 23.7613C29.4549 23.7613 29.3664 23.9355 29.3664 24.1098V34.2158C29.3378 34.4138 29.2448 34.5973 29.1013 34.7387C28.9578 34.8801 28.7716 34.9717 28.5706 34.9999H23.7958C23.5949 34.9717 23.4087 34.8801 23.2652 34.7387C23.1217 34.5973 23.0286 34.4138 23 34.2158V12.784C23.0286 12.586 23.1217 12.4026 23.2652 12.2612C23.4087 12.1198 23.5949 12.0281 23.7958 11.9999H28.2169C28.4596 12.0266 28.6975 12.0852 28.9243 12.1742C29.0379 12.208 29.1434 12.264 29.2345 12.3388C29.3257 12.4137 29.4006 12.5058 29.4549 12.6098L35.6444 21.4961C35.6879 21.5743 35.7518 21.6395 35.8296 21.6849C35.9074 21.7303 35.9961 21.7543 36.0866 21.7543C36.177 21.7543 36.2657 21.7303 36.3435 21.6849C36.4213 21.6395 36.4853 21.5743 36.5287 21.4961L42.6564 12.6098C42.7106 12.5058 42.7855 12.4137 42.8767 12.3388C42.9678 12.264 43.0733 12.208 43.1869 12.1742C43.4104 12.0755 43.6499 12.0165 43.8943 11.9999H48.3154C48.4171 12.0062 48.5165 12.0326 48.6076 12.0775C48.6988 12.1224 48.7798 12.1849 48.846 12.2613C48.9615 12.4105 49.0152 12.5973 48.9963 12.784Z" fill="#111111"/>
<path d="M0.00104912 12.7407C-0.00142384 12.6419 0.0168909 12.5436 0.0548351 12.4522C0.0927794 12.3607 0.149527 12.278 0.221488 12.2093C0.290428 12.1405 0.372978 12.0864 0.463996 12.0504C0.555015 12.0144 0.652554 11.9974 0.75054 12.0002H5.4591C5.55709 11.9974 5.65463 12.0144 5.74565 12.0504C5.83667 12.0864 5.91922 12.1405 5.98816 12.2093C6.06012 12.278 6.11686 12.3607 6.15481 12.4522C6.19275 12.5436 6.21107 12.6419 6.2086 12.7407V25.2765C6.18492 25.9618 6.31751 26.6436 6.59657 27.2715C6.82454 27.7537 7.15898 28.1794 7.57531 28.5172C7.94641 28.8033 8.36795 29.0189 8.81859 29.1531C9.596 29.3969 10.4307 29.3969 11.2081 29.1531C11.6552 29.0232 12.0718 28.8071 12.4338 28.5172C12.842 28.176 13.17 27.7508 13.3949 27.2715C13.6814 26.6457 13.8173 25.9629 13.7917 25.2765V12.7407C13.7892 12.6419 13.8075 12.5436 13.8455 12.4522C13.8834 12.3607 13.9402 12.278 14.0121 12.2093C14.0811 12.1405 14.1636 12.0864 14.2546 12.0504C14.3456 12.0144 14.4432 11.9974 14.5412 12.0002H19.2497C19.4471 11.9984 19.6372 12.0735 19.7788 12.2093C19.8491 12.2792 19.9048 12.3621 19.9426 12.4533C19.9804 12.5445 19.9997 12.6422 19.9992 12.7407V25.2765C20.0155 26.6409 19.7763 27.9966 19.2938 29.2751C18.8495 30.4277 18.161 31.4731 17.2746 32.3415C16.3678 33.204 15.29 33.8714 14.1091 34.3016C12.8011 34.7833 11.4135 35.0196 10.0178 34.9985C8.61907 35.0203 7.22854 34.7839 5.91762 34.3016C4.73671 33.8714 3.65888 33.204 2.75212 32.3415C1.86585 31.4713 1.17487 30.4265 0.724087 29.2751C0.227235 28 -0.0181859 26.6427 0.00104912 25.2765V12.7407Z" fill="#111111"/>
</svg>
