<svg width="20" height="21" viewBox="0 0 20 21" fill="none" xmlns="http://www.w3.org/2000/svg">
<path d="M2.5 12C2.26562 12 2.0638 11.9219 1.89453 11.7656C1.73828 11.5964 1.66016 11.3945 1.66016 11.1602C1.66016 10.9388 1.73828 10.75 1.89453 10.5938C2.0638 10.4245 2.26562 10.3398 2.5 10.3398H17.5C17.7344 10.3398 17.9297 10.4245 18.0859 10.5938C18.2552 10.75 18.3398 10.9388 18.3398 11.1602C18.3398 11.3945 18.2552 11.5964 18.0859 11.7656C17.9297 11.9219 17.7344 12 17.5 12H2.5ZM2.5 7C2.26562 7 2.0638 6.92188 1.89453 6.76562C1.73828 6.59635 1.66016 6.39453 1.66016 6.16016C1.66016 5.9388 1.73828 5.75 1.89453 5.59375C2.0638 5.42448 2.26562 5.33984 2.5 5.33984H17.5C17.7344 5.33984 17.9297 5.42448 18.0859 5.59375C18.2552 5.75 18.3398 5.9388 18.3398 6.16016C18.3398 6.39453 18.2552 6.59635 18.0859 6.76562C17.9297 6.92188 17.7344 7 17.5 7H2.5ZM2.5 17C2.26562 17 2.0638 16.9219 1.89453 16.7656C1.73828 16.5964 1.66016 16.3945 1.66016 16.1602C1.66016 15.9388 1.73828 15.75 1.89453 15.5938C2.0638 15.4245 2.26562 15.3398 2.5 15.3398H17.5C17.7344 15.3398 17.9297 15.4245 18.0859 15.5938C18.2552 15.75 18.3398 15.9388 18.3398 16.1602C18.3398 16.3945 18.2552 16.5964 18.0859 16.7656C17.9297 16.9219 17.7344 17 17.5 17H2.5Z" fill="#111111"/>
</svg>
