<svg width="20" height="20" viewBox="0 0 20 20" fill="none" xmlns="http://www.w3.org/2000/svg">
<path d="M7.49999 18.3333H12.5C15 18.3333 15.8333 17.5 15.8333 15V4.99999C15.8333 2.49999 15 1.66666 12.5 1.66666H7.49999C4.99999 1.66666 4.16666 2.49999 4.16666 4.99999V15C4.16666 17.5 4.99999 18.3333 7.49999 18.3333Z" stroke="#111111" stroke-width="1.3" stroke-miterlimit="10" stroke-linecap="round" stroke-linejoin="round"/>
<path d="M11.6667 4.00003H8.33334" stroke="#111111" stroke-width="1.3" stroke-linecap="round" stroke-linejoin="round"/>
<path d="M10 15.8333C10.6904 15.8333 11.25 15.2737 11.25 14.5833C11.25 13.893 10.6904 13.3333 10 13.3333C9.30964 13.3333 8.75 13.893 8.75 14.5833C8.75 15.2737 9.30964 15.8333 10 15.8333Z" stroke="#111111" stroke-width="1.3" stroke-miterlimit="10" stroke-linecap="round" stroke-linejoin="round"/>
</svg>
