<svg width="20" height="20" viewBox="0 0 20 20" fill="none" xmlns="http://www.w3.org/2000/svg">
<path d="M11.775 9.44999C12.1 8.08332 10.9083 6.89161 9.54167 7.21661C8.9 7.37494 8.375 7.89996 8.21667 8.54163C7.89167 9.9083 9.08333 11.1 10.45 10.775C11.1 10.6166 11.625 10.0917 11.775 9.44999Z" stroke="#111111" stroke-width="1.3" stroke-linecap="round" stroke-linejoin="round"/>
<path d="M15.0083 14.325C16.4333 12.9917 17.325 11.1 17.325 8.99164C17.325 4.94164 14.0417 1.66666 10 1.66666C5.95835 1.66666 2.67502 4.94997 2.67502 8.99164C2.67502 11.1083 3.57502 13.0166 5.01668 14.35" stroke="#111111" stroke-width="1.3" stroke-linecap="round" stroke-linejoin="round"/>
<path d="M6.66666 12.125C5.89999 11.3083 5.42499 10.2083 5.42499 8.99165C5.42499 6.46665 7.47499 4.41666 9.99999 4.41666C12.525 4.41666 14.575 6.46665 14.575 8.99165C14.575 10.2083 14.1 11.3 13.3333 12.125" stroke="#111111" stroke-width="1.3" stroke-linecap="round" stroke-linejoin="round"/>
<path d="M8.58335 13.8833L7.38334 15.375C6.43334 16.5666 7.27501 18.325 8.80001 18.325H11.1917C12.7167 18.325 13.5667 16.5583 12.6083 15.375L11.4083 13.8833C10.6917 12.9749 9.30835 12.9749 8.58335 13.8833Z" stroke="#111111" stroke-width="1.3" stroke-linecap="round" stroke-linejoin="round"/>
</svg>
