<svg width="20" height="20" viewBox="0 0 20 20" fill="none" xmlns="http://www.w3.org/2000/svg">
<path d="M14.5723 16.0308V16.0317C14.6459 16.0299 14.7193 16.0407 14.7881 16.0669L14.8887 16.1177C14.9204 16.1377 14.9503 16.1609 14.9775 16.187L15.0508 16.2729C15.072 16.3036 15.0907 16.3362 15.1055 16.3706L15.1387 16.478C15.1462 16.5148 15.1504 16.5526 15.1504 16.5903C15.1504 16.6278 15.1462 16.6651 15.1387 16.7017L15.1055 16.8091C15.0906 16.8437 15.0721 16.8769 15.0508 16.9077L14.9775 16.9927C14.9231 17.0448 14.8586 17.0859 14.7881 17.1128C14.7192 17.139 14.6459 17.1507 14.5723 17.1489V17.1499H5.42773V17.1489C5.39168 17.1498 5.35573 17.148 5.32031 17.1421L5.21191 17.1128C5.17664 17.0994 5.14307 17.0821 5.11133 17.062L5.02246 16.9927C4.99532 16.9667 4.97052 16.9384 4.94922 16.9077L4.89453 16.8091C4.86497 16.74 4.84965 16.6655 4.84961 16.5903L4.86133 16.478C4.86886 16.4414 4.87972 16.4052 4.89453 16.3706L4.94922 16.2729C4.97064 16.242 4.99513 16.2132 5.02246 16.187C5.07692 16.1349 5.14141 16.0937 5.21191 16.0669L5.32031 16.0376C5.35571 16.0317 5.3917 16.0308 5.42773 16.0317V16.0308H14.5723Z" fill="#111111" stroke="#111111" stroke-width="0.3"/>
<path d="M16.5244 2.84961L16.6836 2.85742C17.0528 2.89189 17.4017 3.04355 17.6689 3.29102L17.7773 3.40137C18.0157 3.67056 18.1496 4.01109 18.1504 4.36621V12.6338L18.1416 12.7852C18.1092 13.0851 17.9816 13.3678 17.7773 13.5986L17.6689 13.71C17.3634 13.9927 16.9517 14.1503 16.5244 14.1504H3.47559C3.10162 14.1503 2.73954 14.0292 2.4502 13.8096L2.33008 13.71C2.0243 13.4267 1.84988 13.0397 1.84961 12.6338V4.36621L1.8584 4.21484C1.89669 3.86535 2.06368 3.53867 2.33105 3.29102L2.4502 3.19141C2.73937 2.97165 3.10166 2.85036 3.47559 2.84961H16.5244ZM3.47559 3.87793C3.36559 3.87793 3.26011 3.90843 3.17188 3.96289L3.08984 4.02539C2.98994 4.11799 2.93565 4.24063 2.93555 4.36621V12.6377C2.93568 12.7633 2.98993 12.8859 3.08984 12.9785L3.17188 13.041C3.2601 13.0955 3.36561 13.126 3.47559 13.126H16.5283C16.675 13.126 16.8136 13.0716 16.9141 12.9785C17.014 12.8859 17.0682 12.7633 17.0684 12.6377V10.5918L17.0635 4.36719V4.36621L17.0537 4.27344C17.0405 4.21204 17.0148 4.15274 16.9766 4.09961L16.9102 4.02539C16.8097 3.93238 16.671 3.878 16.5244 3.87793H3.47559Z" fill="#111111" stroke="#111111" stroke-width="0.3"/>
</svg>
