<svg width="20" height="20" viewBox="0 0 20 20" fill="none" xmlns="http://www.w3.org/2000/svg">
<path d="M7.97499 10.3833L5.43332 12.925" stroke="#111111" stroke-width="1.3" stroke-miterlimit="10" stroke-linecap="round" stroke-linejoin="round"/>
<path d="M5.45834 10.4083L8.00001 12.95" stroke="#111111" stroke-width="1.3" stroke-miterlimit="10" stroke-linecap="round" stroke-linejoin="round"/>
<path d="M11.275 11.6667H11.2833" stroke="#111111" stroke-width="1.8" stroke-miterlimit="10" stroke-linecap="round" stroke-linejoin="round"/>
<path d="M14.5583 11.6667H14.5667" stroke="#111111" stroke-width="1.8" stroke-miterlimit="10" stroke-linecap="round" stroke-linejoin="round"/>
<path d="M12.9167 13.3167V13.3" stroke="#111111" stroke-width="1.8" stroke-miterlimit="10" stroke-linecap="round" stroke-linejoin="round"/>
<path d="M12.9167 10.0333V10.0167" stroke="#111111" stroke-width="1.8" stroke-miterlimit="10" stroke-linecap="round" stroke-linejoin="round"/>
<path d="M7.49999 18.3333H12.5C16.6667 18.3333 18.3333 16.6667 18.3333 12.5V10.8333C18.3333 6.66667 16.6667 5 12.5 5H7.49999C3.33332 5 1.66666 6.66667 1.66666 10.8333V12.5C1.66666 16.6667 3.33332 18.3333 7.49999 18.3333Z" stroke="#111111" stroke-width="1.3" stroke-linecap="round" stroke-linejoin="round"/>
<path d="M10.8417 1.66666L10.8333 2.50832C10.825 2.96666 10.4583 3.33332 9.99999 3.33332H9.97499C9.51666 3.33332 9.14999 3.70832 9.14999 4.16666C9.14999 4.62499 9.52499 4.99999 9.98333 4.99999H10.8167" stroke="#111111" stroke-width="1.3" stroke-linecap="round" stroke-linejoin="round"/>
</svg>
